<svg width="32" height="22" viewBox="0 0 32 22" fill="none" xmlns="http://www.w3.org/2000/svg">
<g style="mix-blend-mode:hard-light" opacity="0.76" filter="url(#filter0_d_214_2161)">
<path d="M8.15625 15.3438H20.6328C21.2995 15.3438 21.9089 15.2891 22.4609 15.1797C23.013 15.0703 23.487 14.8177 23.8828 14.4219C24.2839 14.0208 24.5365 13.5469 24.6406 13C24.7448 12.4531 24.7969 11.8438 24.7969 11.1719V8.53125C24.7969 7.86458 24.7448 7.25781 24.6406 6.71094C24.5365 6.16406 24.2839 5.6901 23.8828 5.28906C23.4818 4.89323 23.0052 4.64062 22.4531 4.53125C21.9062 4.42188 21.2995 4.36719 20.6328 4.36719H8.14062C7.48438 4.36719 6.88021 4.42188 6.32812 4.53125C5.78125 4.64062 5.30729 4.89583 4.90625 5.29688C4.51042 5.69271 4.25781 6.16406 4.14844 6.71094C4.04427 7.25781 3.99219 7.85938 3.99219 8.51562V11.1719C3.99219 11.8438 4.04427 12.4531 4.14844 13C4.2526 13.5469 4.50521 14.0208 4.90625 14.4219C5.30729 14.8177 5.78125 15.0703 6.32812 15.1797C6.88021 15.2891 7.48958 15.3438 8.15625 15.3438ZM7.94531 14.0859C7.54427 14.0859 7.14844 14.0469 6.75781 13.9688C6.3724 13.8906 6.0599 13.7344 5.82031 13.5C5.58594 13.2656 5.43229 12.9557 5.35938 12.5703C5.28646 12.1849 5.25 11.7917 5.25 11.3906V8.34375C5.25 7.93229 5.28646 7.53385 5.35938 7.14844C5.43229 6.75781 5.58594 6.44271 5.82031 6.20312C6.05469 5.96875 6.36719 5.8151 6.75781 5.74219C7.15365 5.66406 7.55729 5.625 7.96875 5.625H20.8438C21.2448 5.625 21.638 5.66406 22.0234 5.74219C22.4141 5.8151 22.7292 5.97135 22.9688 6.21094C23.2031 6.44531 23.3568 6.75521 23.4297 7.14062C23.5026 7.52604 23.5391 7.91927 23.5391 8.32031V11.3906C23.5391 11.7917 23.5026 12.1849 23.4297 12.5703C23.3568 12.9557 23.2031 13.2656 22.9688 13.5C22.7292 13.7396 22.4141 13.8984 22.0234 13.9766C21.638 14.0495 21.2448 14.0859 20.8438 14.0859H7.94531ZM25.8594 11.875C26.0677 11.8594 26.2839 11.7682 26.5078 11.6016C26.7318 11.4297 26.9219 11.1953 27.0781 10.8984C27.2344 10.6016 27.3125 10.2526 27.3125 9.85156C27.3125 9.45573 27.2344 9.10938 27.0781 8.8125C26.9219 8.51562 26.7318 8.28125 26.5078 8.10938C26.2839 7.9375 26.0677 7.84635 25.8594 7.83594V11.875ZM7.63281 13.0938H21.1641C21.4349 13.0938 21.6536 13.0729 21.8203 13.0312C21.987 12.9896 22.1302 12.9115 22.25 12.7969C22.3646 12.6823 22.4427 12.5417 22.4844 12.375C22.5312 12.2031 22.5547 11.9818 22.5547 11.7109V8C22.5547 7.72917 22.5312 7.51042 22.4844 7.34375C22.4427 7.17188 22.3646 7.02865 22.25 6.91406C22.1302 6.79427 21.987 6.71615 21.8203 6.67969C21.6536 6.63802 21.4349 6.61719 21.1641 6.61719H7.63281C7.35677 6.61719 7.13542 6.63802 6.96875 6.67969C6.80208 6.71615 6.66146 6.79427 6.54688 6.91406C6.43229 7.02865 6.35156 7.17188 6.30469 7.34375C6.26302 7.51042 6.24219 7.72917 6.24219 8V11.7109C6.24219 11.9818 6.26302 12.2031 6.30469 12.375C6.35156 12.5417 6.43229 12.6823 6.54688 12.7969C6.66667 12.9115 6.80729 12.9896 6.96875 13.0312C7.13542 13.0729 7.35677 13.0938 7.63281 13.0938Z" fill="black"/>
</g>
<defs>
<filter id="filter0_d_214_2161" x="-0.0078125" y="2.36719" width="31.3203" height="18.9766" filterUnits="userSpaceOnUse" color-interpolation-filters="sRGB">
<feFlood flood-opacity="0" result="BackgroundImageFix"/>
<feColorMatrix in="SourceAlpha" type="matrix" values="0 0 0 0 0 0 0 0 0 0 0 0 0 0 0 0 0 0 127 0" result="hardAlpha"/>
<feOffset dy="2"/>
<feGaussianBlur stdDeviation="2"/>
<feColorMatrix type="matrix" values="0 0 0 0 0 0 0 0 0 0 0 0 0 0 0 0 0 0 0.15 0"/>
<feBlend mode="normal" in2="BackgroundImageFix" result="effect1_dropShadow_214_2161"/>
<feBlend mode="normal" in="SourceGraphic" in2="effect1_dropShadow_214_2161" result="shape"/>
</filter>
</defs>
</svg>
